<?xml version="1.0" encoding="utf-8"?>
<!-- Svg Vector Icons : http://www.onlinewebfonts.com/icon -->
<!DOCTYPE svg PUBLIC "-//W3C//DTD SVG 1.1//EN" "http://www.w3.org/Graphics/SVG/1.1/DTD/svg11.dtd">
<svg version="1.1" xmlns="http://www.w3.org/2000/svg" xmlns:xlink="http://www.w3.org/1999/xlink" x="0px" y="0px" viewBox="0 0 256 256" enable-background="new 0 0 256 256" xml:space="preserve">
<metadata> Svg Vector Icons : http://www.onlinewebfonts.com/icon </metadata>
<g><g><g><path fill="#000000" d="M89.7,10.8c-0.4,0.5-1,2.1-1.4,3.3c-0.3,1.3-2.3,4.4-4.5,6.8c-5,5.6-7.2,10.3-7.2,15.7c0,8.6,3.9,16.7,8.2,16.7c2.5,0,2.8-2.6,0.6-4.4c-2.2-1.9-3.7-6.3-3.7-11.5c0-5.5,1.1-8,6.1-13.9c3.5-4,5.9-8.4,5.9-10.9C93.8,10.9,90.9,9.4,89.7,10.8z"/><path fill="#000000" d="M124.1,10.3c-0.5,0.3-1.1,1.8-1.5,3.2c-0.3,1.5-2.6,4.9-5,7.7c-5.6,6.5-6.7,9.2-6.7,16.3c0,8.2,3.8,15.8,7.9,15.8c2.4,0,2.8-2.4,0.9-4.5c-2.4-2.7-3.4-4.7-4.1-8.8c-0.8-5.2,0.8-9.7,5.1-14.8c4.8-5.6,6.4-8.6,6.4-11.9C127.2,10.7,125.7,9.3,124.1,10.3z"/><path fill="#000000" d="M38.4,76.4c-1.5,0.9-3.2,2.7-3.6,3.9c-0.5,1.4-0.9,31.5-0.9,80c0,86.3-0.3,81.8,5.6,84.3c4.5,1.8,125.7,1.8,130.2-0.1c4.5-1.9,5.5-5,5.5-18.7v-11.5l3.7-0.6c16.2-2.5,30-12.9,37.4-28.2c4.9-10,6.2-17.4,5.7-30c-0.7-16.7-5.2-28.2-15.2-38.2c-6.8-6.9-14-10.7-24.2-12.6l-7.4-1.4V93.4c0-12.2-1-15.6-5.5-17.4c-2.6-1.1-12.6-1.3-65.7-1.3C42.8,74.7,41.1,74.8,38.4,76.4z M168.6,81.2c1.2,1.2,1.4,9.5,1.4,79.1s-0.2,77.9-1.4,79.1c-1.2,1.2-8.1,1.4-63.8,1.4c-41.4,0-63.1-0.3-64.2-0.9c-1.6-0.9-1.6-2.7-1.6-79.4c0-60,0.3-78.8,1-79.6s16.2-1,64.1-1C160.4,79.8,167.4,80,168.6,81.2z M184.8,110.2c15.5,4,26.5,16.1,31.1,33.8c2.3,9,2,22.8-0.9,31.2c-3.9,12.2-10.1,20.6-19.4,26.9c-5.1,3.4-14.5,6.9-18.4,6.9c-2.1,0-2.1-0.1-2.1-8.5v-8.5l3.3-0.6c8.2-1.5,15.7-8,20.1-17.5c2.3-4.8,2.7-6.8,3-13.9c0.4-9.2-1-15.6-4.6-21.9c-4.2-7-13.7-13.9-19.3-14h-2.4v-7.7v-7.7h2.4C178.8,108.9,182.2,109.5,184.8,110.2z M183.4,131.7c8.6,5,13.4,14.2,13.4,26.4c0.1,6.9-0.2,8.3-2.6,13.3c-3.5,7.4-6.3,10.5-11.6,13.2c-8.1,4.1-7.5,6.2-7.5-26.9v-29.1l2.4,0.5C178.8,129.4,181.5,130.6,183.4,131.7z"/><path fill="#000000" d="M116.3,124.1c-0.5,0.9-6.5,16.5-13.4,34.8c-11.5,30.4-12.4,33.4-11.2,34.6c1.2,1.2,1.5,1.2,2.6,0.2c1.7-1.8,26.4-67.3,26-69.1C119.8,122.5,117.2,122.2,116.3,124.1z"/><path fill="#000000" d="M77.2,141.2c-13.7,12.4-15.3,14.8-13.7,20.1c0.9,2.8,15.8,17.8,17.7,17.8c3.9,0,2.6-2.7-5.2-10.6c-5.6-5.8-7.8-8.6-7.8-10.2c0-1.6,2-3.9,8.1-9.7c5-4.4,8.1-8,8-8.8C83.7,137.3,80.7,137.9,77.2,141.2z"/><path fill="#000000" d="M128.1,140c0,1.3,2.3,4.2,6.9,8.7c3.8,3.8,7.3,7.5,7.7,8.3c1.3,2.3-0.6,4.9-8.8,12.2c-7.5,6.7-9,9.2-5.4,9.8c1.8,0.2,16.3-12.2,18.1-15.5c0.6-1,1-3.4,1.1-5.2c0-3.1-0.6-3.9-8.3-11.7C131.2,137.9,128.1,136.2,128.1,140z"/></g></g></g>
</svg>